<?xml version="1.0" encoding="iso-8859-1"?>
<!-- Generator: Adobe Illustrator 19.0.0, SVG Export Plug-In . SVG Version: 6.00 Build 0)  -->
<svg version="1.1" id="Capa_1" xmlns="http://www.w3.org/2000/svg" xmlns:xlink="http://www.w3.org/1999/xlink" x="0px" y="0px"
	 viewBox="0 0 469.888 469.888" style="enable-background:new 0 0 469.888 469.888;" xml:space="preserve">
<g>
	<path style="fill:#A3E175;" d="M307.676,407.726l-46.583-46.583l-16.97,16.97c-12.843,12.843-12.843,33.74,0,46.583
		c6.221,6.221,14.493,9.647,23.291,9.647c8.799,0,17.071-3.426,23.293-9.647L307.676,407.726z"/>
	<path style="fill:#A3E175;" d="M424.697,144.659l-24.689,24.689c12.891,12.892,19.991,30.057,19.991,48.333
		c0,18.277-7.101,35.442-19.992,48.334c-1.436,1.435-3.354,2.197-5.306,2.197c-0.966,0-1.94-0.187-2.868-0.571
		c-2.803-1.161-4.63-3.896-4.63-6.929c0-2.226,0.97-4.236,2.51-5.619c9.861-10.022,15.286-23.291,15.286-37.412
		c0-14.27-5.54-27.667-15.598-37.726l-11.286,11.287c7.062,7.062,10.951,16.452,10.951,26.44c0,9.988-3.89,19.378-10.952,26.44
		l-55.961,55.961l18.464,18.464c2.929,2.929,2.929,7.678,0,10.606c-1.465,1.464-3.385,2.197-5.304,2.197s-3.839-0.732-5.304-2.197
		l-18.463-18.463l-39.846,39.846l46.583,46.583l39.846-39.847l-6.906-6.906c-2.93-2.929-2.93-7.677-0.001-10.606
		c2.93-2.929,7.679-2.93,10.606,0l6.907,6.906l55.96-55.961C464.96,250.44,464.961,184.925,424.697,144.659z"/>
	<path style="fill:#EC6A65;" d="M389.399,179.953c-2.929-2.929-2.929-7.678,0-10.606c2.93-2.929,7.678-2.929,10.607,0
		c0.001,0.001,24.69-24.688,24.69-24.688c-19.507-19.507-45.44-30.249-73.025-30.249s-53.519,10.742-73.023,30.248L144.657,278.647
		c-7.063,7.063-16.453,10.953-26.441,10.953s-19.379-3.89-26.441-10.953c-0.003-0.003-24.692,24.686-24.692,24.686
		c2.932,2.933,2.932,7.682,0.004,10.61c-1.465,1.464-3.385,2.197-5.304,2.197c-1.92,0-3.839-0.732-5.304-2.197
		c-0.003-0.003-11.29,11.283-11.29,11.283c19.509,19.509,45.442,30.252,73.027,30.252s53.519-10.742,73.023-30.248L325.23,191.24
		c7.063-7.063,16.453-10.952,26.441-10.952s19.379,3.89,26.441,10.952C378.115,191.241,389.401,179.955,389.399,179.953z"/>
	<path style="fill:#03E6FF;" d="M56.479,190.47c2.931-2.929,7.679-2.929,10.607,0c2.929,2.929,2.929,7.678,0,10.606
		c-28.193,28.192-28.194,74.063-0.004,102.257l24.689-24.689c-7.061-7.062-10.949-16.451-10.949-26.438
		c0-9.988,3.89-19.378,10.952-26.44l106.83-106.83l-18.464-18.464c-2.929-2.929-2.929-7.678,0-10.606
		c2.93-2.929,7.678-2.929,10.607,0l18.463,18.463l16.554-16.554c12.843-12.843,12.843-33.74,0-46.583
		c-6.221-6.221-14.493-9.647-23.291-9.647c-8.799,0-17.07,3.426-23.291,9.647l-16.555,16.555l6.906,6.906
		c2.93,2.929,2.93,7.677,0.001,10.606c-1.465,1.464-3.385,2.197-5.304,2.197s-3.839-0.732-5.303-2.197l-6.906-6.906l-106.83,106.83
		C4.928,219.447,4.927,284.961,45.188,325.227l11.287-11.287C22.437,279.898,22.438,224.51,56.479,190.47z"/>
	<path style="fill:#3D2A20;" d="M435.303,134.05c-22.339-22.338-52.039-34.641-83.631-34.641s-61.292,12.303-83.631,34.641
		L134.05,268.041c-4.229,4.229-9.853,6.559-15.834,6.559s-11.604-2.33-15.834-6.559c-8.731-8.731-8.731-22.938,0-31.668
		l133.991-133.991c18.69-18.691,18.69-49.105,0-67.796c-9.056-9.055-21.094-14.041-33.898-14.041
		c-12.806,0-24.844,4.986-33.898,14.041L146.722,56.44c-0.008,0.008-112.137,112.137-112.137,112.137
		c-46.113,46.114-46.113,121.147,0,167.261c22.339,22.338,52.039,34.641,83.631,34.641s61.292-12.303,83.631-34.641l133.991-133.991
		c4.229-4.229,9.853-6.559,15.834-6.559s11.604,2.329,15.834,6.559s6.56,9.853,6.56,15.834c0,5.981-2.33,11.604-6.56,15.834
		L233.515,367.506c-18.69,18.691-18.69,49.104,0,67.796c9.056,9.055,21.094,14.041,33.898,14.041
		c12.806,0,24.844-4.986,33.899-14.041l72.724-72.724c0.005-0.005,61.266-61.267,61.266-61.267
		C481.416,255.198,481.416,180.165,435.303,134.05z M244.122,424.696c-12.843-12.843-12.843-33.74,0-46.583l16.97-16.97
		l46.583,46.583l-16.97,16.97c-6.222,6.221-14.494,9.647-23.293,9.647C258.615,434.343,250.343,430.917,244.122,424.696z
		 M368.735,346.666l-6.907-6.906c-2.928-2.93-7.677-2.929-10.606,0c-2.929,2.929-2.929,7.678,0.001,10.606l6.906,6.906
		l-39.846,39.847l-46.583-46.583l39.846-39.846l18.463,18.463c1.465,1.464,3.385,2.197,5.304,2.197s3.839-0.732,5.304-2.197
		c2.929-2.929,2.929-7.678,0-10.606l-18.464-18.464l55.961-55.961c7.063-7.063,10.952-16.453,10.952-26.44
		c0-9.988-3.889-19.377-10.951-26.44c-7.064-7.064-16.454-10.953-26.443-10.953s-19.379,3.89-26.441,10.952L191.239,325.231
		c-19.505,19.505-45.438,30.248-73.023,30.248s-53.519-10.742-73.023-30.248c-40.266-40.27-40.264-105.784,0-146.048l106.83-106.83
		l6.906,6.906c1.464,1.465,3.384,2.197,5.303,2.197s3.839-0.732,5.304-2.197c2.929-2.929,2.929-7.678-0.001-10.606l-6.906-6.906
		l16.555-16.555c6.221-6.221,14.492-9.647,23.291-9.647c8.798,0,17.07,3.426,23.291,9.647c12.843,12.843,12.843,33.74,0,46.583
		l-16.554,16.554l-18.463-18.463c-2.93-2.929-7.678-2.929-10.607,0c-2.929,2.929-2.929,7.678,0,10.606l18.464,18.464l-106.83,106.83
		c-7.063,7.063-10.952,16.453-10.952,26.44c0,9.987,3.888,19.375,10.949,26.438c7.066,7.066,16.456,10.956,26.445,10.956
		s19.379-3.89,26.441-10.953l133.991-133.991c19.505-19.505,45.438-30.248,73.023-30.248s53.519,10.742,73.023,30.248
		c40.266,40.268,40.265,105.783,0,146.048L368.735,346.666z"/>
	<path style="fill:#FFFFFF;" d="M67.086,201.076c2.929-2.929,2.929-7.678,0-10.606c-2.929-2.929-7.677-2.929-10.607,0
		c-34.041,34.04-34.042,89.428-0.003,123.471c1.468,1.468,3.387,2.2,5.307,2.2c1.919,0,3.839-0.732,5.304-2.197
		c2.929-2.929,2.929-7.678,0-10.606C38.892,275.139,38.893,229.268,67.086,201.076z"/>
	<path style="fill:#FFFFFF;" d="M389.399,169.347c-2.929,2.929-2.929,7.678,0,10.606c10.06,10.061,15.6,23.458,15.6,37.728
		c0,14.121-5.425,27.389-15.286,37.412c-1.54,1.383-2.51,3.393-2.51,5.619c0,3.033,1.827,5.768,4.63,6.929
		c0.928,0.384,1.902,0.571,2.868,0.571c1.952,0,3.87-0.762,5.306-2.197c12.892-12.892,19.992-30.057,19.992-48.334
		c0-18.276-7.1-35.441-19.991-48.333C397.077,166.418,392.329,166.418,389.399,169.347z"/>
</g>
<g>
</g>
<g>
</g>
<g>
</g>
<g>
</g>
<g>
</g>
<g>
</g>
<g>
</g>
<g>
</g>
<g>
</g>
<g>
</g>
<g>
</g>
<g>
</g>
<g>
</g>
<g>
</g>
<g>
</g>
</svg>
