<?xml version="1.0" encoding="iso-8859-1"?>
<!-- Generator: Adobe Illustrator 19.0.0, SVG Export Plug-In . SVG Version: 6.00 Build 0)  -->
<svg version="1.1" id="Layer_1" xmlns="http://www.w3.org/2000/svg" xmlns:xlink="http://www.w3.org/1999/xlink" x="0px" y="0px"
	 viewBox="0 0 512.001 512.001" style="enable-background:new 0 0 512.001 512.001;" xml:space="preserve">
<path style="fill:#CFF09E;" d="M379.817,14.777L256.463,155.721h-0.924L132.189,14.777H379.817z"/>
<path style="fill:#507C5C;" d="M256.463,170.497h-0.924c-4.26,0-8.313-1.84-11.119-5.045L121.069,24.509
	c-3.818-4.363-4.733-10.556-2.338-15.837c2.397-5.28,7.659-8.671,13.457-8.671h247.627c5.798,0,11.06,3.391,13.455,8.671
	c2.395,5.281,1.482,11.474-2.336,15.837L267.582,165.453C264.778,168.658,260.725,170.497,256.463,170.497z M164.757,29.554
	l91.245,104.259l91.245-104.259H164.757z"/>
<path style="fill:#CFF09E;" d="M256.463,155.721L379.817,14.777l53.171,79.963c16.341,24.576,14.194,57.051-5.241,79.26
	l-78.096,89.246l-93.652-107L256.463,155.721z"/>
<path style="fill:#507C5C;" d="M349.651,278.023c-4.262,0-8.315-1.838-11.119-5.045l-93.652-107
	c-4.892-5.588-4.875-13.94,0.04-19.509l0.465-0.528L368.698,5.044c3.031-3.462,7.506-5.315,12.096-5.012
	c4.591,0.304,8.78,2.729,11.329,6.562l53.171,79.963c19.983,30.054,17.34,70.013-6.426,97.173l-78.097,89.246
	C357.964,276.185,353.911,278.023,349.651,278.023z M275.637,156.25l74.013,84.56l66.978-76.541
	c15.004-17.146,16.672-42.374,4.056-61.348l-42.473-63.873L275.637,156.25z"/>
<path style="fill:#CFF09E;" d="M58.345,382.078l103.997-118.831l93.655,106.989l-91.598,104.66
	c-23.784,27.175-65.097,29.922-92.269,6.135l-7.65-6.697C37.313,450.551,34.566,409.248,58.345,382.078z"/>
<g>
	<path style="fill:#507C5C;" d="M115.171,511.997c-19.412,0-38.154-7.05-52.774-19.848l-7.65-6.697
		c-33.251-29.111-36.626-79.85-7.521-113.105l103.998-118.831c2.805-3.205,6.858-5.045,11.118-5.045s8.313,1.838,11.119,5.045
		l93.655,106.989c4.878,5.572,4.878,13.891,0.001,19.463l-91.6,104.66C160.296,502.021,138.3,511.997,115.171,511.997z
		 M162.344,285.681L69.465,391.809c-18.374,20.996-16.244,53.029,4.749,71.408l7.65,6.697c9.231,8.081,21.059,12.53,33.309,12.53
		c14.608,0,28.498-6.298,38.11-17.279l83.081-94.927L162.344,285.681z"/>
	<path style="fill:#507C5C;" d="M396.915,512.001c-1.807,0-3.616-0.061-5.436-0.182c-21.365-1.422-40.899-11.078-55.002-27.191
		L73.131,183.734c-23.769-27.162-26.41-67.123-6.423-97.178l53.177-79.962c2.549-3.831,6.737-6.258,11.329-6.561
		c4.595-0.3,9.064,1.55,12.094,5.012l233.027,266.253c5.376,6.141,4.755,15.477-1.386,20.851
		c-6.138,5.373-15.477,4.754-20.849-1.387L133.793,39.047l-42.479,63.873c-12.619,18.974-10.951,44.203,4.055,61.351l78.093,89.243
		l185.255,211.65c8.903,10.173,21.235,16.27,34.723,17.167c13.497,0.901,26.519-3.512,36.691-12.417l7.654-6.7
		c20.972-18.358,23.12-50.343,4.81-71.341l-32.738-36.384c-5.458-6.066-4.965-15.409,1.101-20.869
		c6.063-5.457,15.407-4.966,20.867,1.101l32.814,36.466c0.044,0.05,0.092,0.1,0.136,0.152c29.106,33.258,25.733,83.999-7.523,113.11
		l-7.654,6.7C434.856,505.056,416.323,512,396.915,512.001z"/>
</g>
<g>
</g>
<g>
</g>
<g>
</g>
<g>
</g>
<g>
</g>
<g>
</g>
<g>
</g>
<g>
</g>
<g>
</g>
<g>
</g>
<g>
</g>
<g>
</g>
<g>
</g>
<g>
</g>
<g>
</g>
</svg>
