<?xml version="1.0" encoding="iso-8859-1"?>
<!-- Generator: Adobe Illustrator 19.0.0, SVG Export Plug-In . SVG Version: 6.00 Build 0)  -->
<svg version="1.1" id="Layer_1" xmlns="http://www.w3.org/2000/svg" xmlns:xlink="http://www.w3.org/1999/xlink" x="0px" y="0px"
	 viewBox="0 0 512 512" style="enable-background:new 0 0 512 512;" xml:space="preserve">
<path style="fill:#2D527C;" d="M247.516,434.74c-53.811,0-110.765-14.719-154.048-40.044
	c-43.911-25.694-72.524-48.875-88.795-63.797c-5.868-5.383-6.264-14.504-0.881-20.372c5.378-5.867,14.502-6.265,20.372-0.881
	c15.236,13.972,42.155,35.751,83.868,60.161c73.213,42.838,216.55,63.166,291.692-29.254c14.51-17.842,20.136-32.344,26.092-47.699
	c7.919-20.414,16.745-43.171,46.085-74.24c-3.75-2.523-6.958-5.626-8.909-9.421c-1.184-2.306-2.474-4.911-3.88-7.756
	c-16.481-33.319-47.155-95.339-118.264-95.339c-38.285,0-71.256,24.6-97.997,73.113c-3.844,6.974-12.619,9.511-19.588,5.668
	c-6.974-3.844-9.512-12.615-5.668-19.588c32.197-58.413,73.666-88.031,123.252-88.031c38.598,0,72.144,14.588,99.713,43.356
	c22.215,23.184,35.565,50.175,44.4,68.035c1.083,2.189,2.091,4.229,3.034,6.089c2.392,1.556,8.594,3.736,12.766,4.68
	c5.215,1.179,9.349,5.148,10.742,10.309c1.393,5.162-0.187,10.671-4.104,14.314c-37.477,34.849-45.842,56.412-54.699,79.24
	c-6.501,16.762-13.226,34.095-30.602,55.463c-48.747,59.955-116.948,74.343-165.58,75.856
	C253.533,434.694,250.527,434.74,247.516,434.74z"/>
<path style="fill:#CEE8FA;" d="M95.656,293.209c37.748,28.148,87.779,31.968,126.659,29.283
	c35.811-2.473,60.944-36.177,53.097-71.204c-8.52-38.031-26.453-84.892-64.201-113.04C139.586,84.838,23.745,119.02,23.745,119.02
	S24.032,239.799,95.656,293.209z"/>
<g>
	<path style="fill:#2D527C;" d="M201.921,337.629c-0.003,0-0.006,0-0.009,0c-46.987,0-85.636-11.056-114.875-32.86
		C10.51,247.702,9.338,124.282,9.326,119.055c-0.016-6.403,4.194-12.051,10.337-13.864c1.573-0.464,39.033-11.363,85.29-11.363
		c46.985,0,85.636,11.056,114.876,32.862c42.12,31.408,61.126,83.38,69.653,121.448c4.66,20.802,0.036,42.518-12.687,59.581
		s-32.219,27.691-53.487,29.159C216.082,337.377,208.887,337.629,201.921,337.629z M38.697,130.157
		c2.138,29.902,12.788,112.128,65.578,151.494c24.15,18.009,57,27.141,97.637,27.141c0.001,0,0.004,0,0.006,0
		c6.307,0,12.834-0.229,19.405-0.683c12.87-0.89,24.662-7.315,32.353-17.63c7.691-10.314,10.485-23.451,7.665-36.038
		c-7.463-33.312-23.712-78.505-58.751-104.633c-24.151-18.011-57.002-27.142-97.638-27.142
		C77.043,122.665,52.249,127.138,38.697,130.157z"/>
	<path style="fill:#2D527C;" d="M384.98,217.022h-11.535c-7.962,0-14.419-6.455-14.419-14.419s6.457-14.419,14.419-14.419h11.535
		c7.962,0,14.419,6.455,14.419,14.419S392.943,217.022,384.98,217.022z"/>
</g>
<g>
</g>
<g>
</g>
<g>
</g>
<g>
</g>
<g>
</g>
<g>
</g>
<g>
</g>
<g>
</g>
<g>
</g>
<g>
</g>
<g>
</g>
<g>
</g>
<g>
</g>
<g>
</g>
<g>
</g>
</svg>
